<svg xmlns="http://www.w3.org/2000/svg" viewBox="-0.25 0 20.5 14">
    <path
        d="M660.59,386.1l-.12.17a6.43,6.43,0,0,1-5.33,2.84,6.44,6.44,0,0,1-6.44-6.71,6.44,6.44,0,0,1,11-4.25.24.24,0,0,1,0,.31l-1.28,2.22a.19.19,0,0,1-.17.1.2.2,0,0,1-.17-.09,3.61,3.61,0,1,0-.13,4.12l.1-.13Zm8.08-9.32a.26.26,0,0,0-.23-.13h-5.39a.48.48,0,0,0-.42.25l-3.88,6.71,2.46,1.42,3.2-5.54h2.69a.28.28,0,0,0,.23-.13l1.34-2.32A.24.24,0,0,0,668.67,376.78Z"
        transform="translate(-648.69 -376.22)" style="fill:#780d10" />
</svg>
