<svg xmlns="http://www.w3.org/2000/svg" viewBox="0 0 63.35 14.38">
    <path
        d="M660.59,386.1l-.12.17a6.43,6.43,0,0,1-5.33,2.84,6.44,6.44,0,0,1-6.44-6.71,6.44,6.44,0,0,1,11-4.25.24.24,0,0,1,0,.31l-1.28,2.22a.19.19,0,0,1-.17.1.2.2,0,0,1-.17-.09,3.61,3.61,0,1,0-.13,4.12l.1-.13Zm8.08-9.32a.26.26,0,0,0-.23-.13h-5.39a.48.48,0,0,0-.42.25l-3.88,6.71,2.46,1.42,3.2-5.54h2.69a.28.28,0,0,0,.23-.13l1.34-2.32A.24.24,0,0,0,668.67,376.78Z"
        transform="translate(-648.69 -376.22)" style="fill:#780d10" />
    <path
        d="M668.64,387v0a2.52,2.52,0,0,1,2.57-2.57,2.59,2.59,0,0,1,1.94.77l-.56.65a2,2,0,0,0-1.39-.62,1.67,1.67,0,0,0-1.64,1.76h0a1.68,1.68,0,0,0,1.64,1.77,2,2,0,0,0,1.43-.64l.56.56a2.58,2.58,0,0,1-2,.89A2.51,2.51,0,0,1,668.64,387Z"
        transform="translate(-648.69 -376.22)" style="fill:#7d8386" />
    <path
        d="M673.81,390.37l.29-.64a1,1,0,0,0,.51.14c.24,0,.39-.1.53-.43l-1.56-3.75h.91l1.07,2.78,1-2.78h.9l-1.49,3.86c-.3.76-.64,1.05-1.24,1.05A1.78,1.78,0,0,1,673.81,390.37Z"
        transform="translate(-648.69 -376.22)" style="fill:#7d8386" />
    <path
        d="M679,388.86v.58h-.86v-5.19H679v2.06a1.51,1.51,0,0,1,1.28-.7,1.8,1.8,0,0,1,1.75,1.95h0a1.81,1.81,0,0,1-1.75,1.95A1.55,1.55,0,0,1,679,388.86Zm2.15-1.29h0a1.12,1.12,0,0,0-1.07-1.21,1.14,1.14,0,0,0-1.1,1.21h0a1.14,1.14,0,0,0,1.1,1.2A1.1,1.1,0,0,0,681.17,387.57Z"
        transform="translate(-648.69 -376.22)" style="fill:#7d8386" />
    <path
        d="M682.72,387.58v0a1.86,1.86,0,0,1,1.83-1.95,1.81,1.81,0,0,1,1.8,2c0,.08,0,.15,0,.24h-2.76a1,1,0,0,0,1.08.95,1.31,1.31,0,0,0,1-.45l.51.45a1.91,1.91,0,0,1-1.54.71A1.87,1.87,0,0,1,682.72,387.58Zm2.78-.28a1,1,0,0,0-1-1,1,1,0,0,0-1,1Z"
        transform="translate(-648.69 -376.22)" style="fill:#7d8386" />
    <path d="M687.21,385.69h.86v.84a1.35,1.35,0,0,1,1.33-.92v.91h0c-.75,0-1.28.5-1.28,1.49v1.43h-.86Z"
        transform="translate(-648.69 -376.22)" style="fill:#7d8386" />
    <path
        d="M690.25,384.46h2.21a2,2,0,0,1,1.44.5,1.51,1.51,0,0,1,.41,1.07v0a1.5,1.5,0,0,1-1.18,1.51l1.34,1.88h-1l-1.22-1.73h-1.1v1.73h-.87Zm2.15,2.47c.63,0,1-.33,1-.83v0c0-.53-.38-.82-1-.82h-1.27v1.67Z"
        transform="translate(-648.69 -376.22)" style="fill:#7d8386" />
    <path
        d="M697.58,389.44V389a1.55,1.55,0,0,1-1.22.54,1.2,1.2,0,0,1-1.33-1.16v0c0-.83.64-1.22,1.52-1.22a3.32,3.32,0,0,1,1,.15v-.07c0-.52-.33-.8-.93-.8a2.62,2.62,0,0,0-1.07.23l-.24-.69a3.32,3.32,0,0,1,1.43-.31,1.45,1.45,0,0,1,1.65,1.58v2.23Zm0-1.57a2.37,2.37,0,0,0-.86-.15c-.54,0-.86.22-.86.58v0c0,.35.32.55.72.55.57,0,1-.32,1-.79Z"
        transform="translate(-648.69 -376.22)" style="fill:#7d8386" />
    <path
        d="M699.45,385.69h.86v.58a1.34,1.34,0,0,1,1.18-.66,1.29,1.29,0,0,1,1.33,1.44v2.39H702v-2.13c0-.59-.29-.92-.8-.92a.84.84,0,0,0-.85.93v2.12h-.86Z"
        transform="translate(-648.69 -376.22)" style="fill:#7d8386" />
    <path
        d="M703.85,390.14l.32-.64a2.43,2.43,0,0,0,1.34.4,1.05,1.05,0,0,0,1.18-1.16v-.29a1.55,1.55,0,0,1-1.32.69,1.69,1.69,0,0,1-1.71-1.76h0a1.7,1.7,0,0,1,1.71-1.76,1.64,1.64,0,0,1,1.32.64v-.56h.86v3a2,2,0,0,1-.48,1.42,2.12,2.12,0,0,1-1.54.5A3.15,3.15,0,0,1,703.85,390.14Zm2.85-2.76h0a1,1,0,0,0-1.1-1,1,1,0,0,0-1.07,1v0a1,1,0,0,0,1.07,1A1.05,1.05,0,0,0,706.7,387.38Z"
        transform="translate(-648.69 -376.22)" style="fill:#7d8386" />
    <path
        d="M708.41,387.58v0a1.86,1.86,0,0,1,1.83-1.95,1.81,1.81,0,0,1,1.8,2,2,2,0,0,1,0,.24h-2.76a1,1,0,0,0,1.08.95,1.34,1.34,0,0,0,1-.45l.5.45a2,2,0,0,1-3.46-1.24Zm2.78-.28a1,1,0,0,0-1-1,1,1,0,0,0-1,1Z"
        transform="translate(-648.69 -376.22)" style="fill:#7d8386" />
</svg>
