<svg xmlns="http://www.w3.org/2000/svg" viewBox="0 0 45 12.71"><path d="M685.16,389.83c0,.31,0,.4-.09.48a.33.33,0,0,1-.23.1.33.33,0,0,1-.24-.1c-.07-.08-.09-.17-.09-.48s0-.41.09-.49a.33.33,0,0,1,.24-.1.33.33,0,0,1,.23.1c.08.08.09.17.09.49m.24,0c0-.3,0-.48-.15-.63a.57.57,0,0,0-.41-.17.53.53,0,0,0-.41.17c-.16.15-.15.33-.15.63s0,.47.15.62a.53.53,0,0,0,.41.17.57.57,0,0,0,.41-.17c.15-.15.15-.32.15-.62" transform="translate(-660.5 -377.9)" style="fill:#780d10"/><polygon points="26.24 11.35 26.24 11.14 25.25 11.14 25.25 12.7 25.48 12.7 25.48 12.04 26.13 12.04 26.13 11.83 25.48 11.83 25.48 11.35 26.24 11.35" style="fill:#780d10"/><polygon points="27.97 11.35 27.97 11.14 26.87 11.14 26.87 11.35 27.3 11.35 27.3 12.7 27.54 12.7 27.54 11.35 27.97 11.35" style="fill:#780d10"/><polygon points="29.14 12.7 29.14 12.49 28.38 12.49 28.38 12.02 29.03 12.02 29.03 11.81 28.38 11.81 28.38 11.35 29.14 11.35 29.14 11.14 28.15 11.14 28.15 12.7 29.14 12.7" style="fill:#780d10"/><path d="M690.92,390.14h-.24a.31.31,0,0,1-.32.27.33.33,0,0,1-.23-.1c-.07-.08-.09-.17-.09-.48s0-.41.09-.49a.33.33,0,0,1,.23-.1.31.31,0,0,1,.32.27h.24a.54.54,0,0,0-.56-.48.57.57,0,0,0-.41.17c-.15.15-.15.33-.15.63s0,.47.15.62a.57.57,0,0,0,.41.17.54.54,0,0,0,.56-.48" transform="translate(-660.5 -377.9)" style="fill:#780d10"/><polygon points="31.75 12.7 31.75 11.14 31.52 11.14 31.52 11.81 30.88 11.81 30.88 11.14 30.65 11.14 30.65 12.7 30.88 12.7 30.88 12.02 31.52 12.02 31.52 12.7 31.75 12.7" style="fill:#780d10"/><polygon points="33.29 12.7 33.29 11.14 33.05 11.14 33.05 12.24 32.33 11.14 32.12 11.14 32.12 12.7 32.35 12.7 32.35 11.6 33.07 12.7 33.29 12.7" style="fill:#780d10"/><path d="M694.94,389.83c0,.31,0,.4-.09.48a.33.33,0,0,1-.24.1.33.33,0,0,1-.23-.1c-.07-.08-.09-.17-.09-.48s0-.41.09-.49a.33.33,0,0,1,.23-.1.33.33,0,0,1,.24.1c.07.08.09.17.09.49m.24,0c0-.3,0-.48-.15-.63a.57.57,0,0,0-.42-.17.57.57,0,0,0-.41.17c-.15.15-.15.33-.15.63s0,.47.15.62a.57.57,0,0,0,.41.17.57.57,0,0,0,.42-.17c.15-.15.15-.32.15-.62" transform="translate(-660.5 -377.9)" style="fill:#780d10"/><polygon points="35.9 12.7 35.9 12.49 35.15 12.49 35.15 11.14 34.91 11.14 34.91 12.7 35.9 12.7" style="fill:#780d10"/><path d="M697.37,389.83c0,.31,0,.4-.09.48a.33.33,0,0,1-.23.1.33.33,0,0,1-.24-.1c-.07-.08-.09-.17-.09-.48s0-.41.09-.49a.33.33,0,0,1,.24-.1.33.33,0,0,1,.23.1c.07.08.09.17.09.49m.24,0c0-.3,0-.48-.15-.63a.57.57,0,0,0-.41-.17.53.53,0,0,0-.41.17c-.16.15-.15.33-.15.63s0,.47.15.62a.53.53,0,0,0,.41.17.57.57,0,0,0,.41-.17c.15-.15.15-.32.15-.62" transform="translate(-660.5 -377.9)" style="fill:#780d10"/><path d="M699,390v-.24h-.57v.2h.33v.09a.36.36,0,0,1-.08.25.33.33,0,0,1-.25.11.29.29,0,0,1-.23-.1c-.08-.08-.1-.17-.1-.48s0-.41.1-.49a.29.29,0,0,1,.23-.1.33.33,0,0,1,.33.28H699a.54.54,0,0,0-.56-.49.53.53,0,0,0-.41.17c-.16.15-.15.33-.15.63s0,.47.15.62a.53.53,0,0,0,.41.17.56.56,0,0,0,.43-.18A.6.6,0,0,0,699,390" transform="translate(-660.5 -377.9)" style="fill:#780d10"/><polygon points="39.77 11.14 39.51 11.14 39.18 11.83 38.85 11.14 38.6 11.14 39.06 12.06 39.06 12.7 39.3 12.7 39.3 12.06 39.77 11.14" style="fill:#780d10"/><path d="M685,388.3h-.28l.14-.42Zm.57.55-.57-1.56h-.29l-.57,1.56h.4l.08-.23h.48l.07.23Z" transform="translate(-660.5 -377.9)" style="fill:#780d10"/><path d="M686.85,388.31v-1h-.38v1a.21.21,0,1,1-.42,0v-1h-.38v1a.55.55,0,0,0,.59.56.56.56,0,0,0,.59-.56" transform="translate(-660.5 -377.9)" style="fill:#780d10"/><path d="M688.21,388.38a.44.44,0,0,0-.12-.35.52.52,0,0,0-.3-.13l-.19,0a.19.19,0,0,1-.11-.05.11.11,0,0,1,0-.07c0-.07.06-.14.19-.14a.36.36,0,0,1,.29.09l.25-.24a.69.69,0,0,0-.53-.19.5.5,0,0,0-.57.49.46.46,0,0,0,.11.32.52.52,0,0,0,.31.13l.19,0a.19.19,0,0,1,.1,0,.16.16,0,0,1,0,.09c0,.09-.07.14-.22.14a.46.46,0,0,1-.35-.11l-.24.25a.76.76,0,0,0,.59.21c.33,0,.6-.18.6-.49" transform="translate(-660.5 -377.9)" style="fill:#780d10"/><polygon points="29.02 9.73 29.02 9.39 27.87 9.39 27.87 9.73 28.25 9.73 28.25 10.95 28.63 10.95 28.63 9.73 29.02 9.73" style="fill:#780d10"/><path d="M690.51,387.79a.16.16,0,0,1-.17.16h-.21v-.31h.21a.15.15,0,0,1,.17.15m.47,1.06-.34-.65a.44.44,0,0,0,.25-.41.5.5,0,0,0-.53-.5h-.62v1.56h.39v-.58h.12l.28.58Z" transform="translate(-660.5 -377.9)" style="fill:#780d10"/><rect x="30.65" y="9.39" width="0.38" height="1.56" style="fill:#780d10"/><path d="M692.52,388.3h-.27l.14-.42Zm.58.55-.57-1.56h-.3l-.56,1.56h.4l.07-.23h.48l.08.23Z" transform="translate(-660.5 -377.9)" style="fill:#780d10"/><polygon points="33.95 10.95 33.95 9.39 33.57 9.39 33.57 10.17 33.07 9.39 32.73 9.39 32.73 10.95 33.12 10.95 33.12 10.16 33.61 10.95 33.95 10.95" style="fill:#780d10"/><rect x="34.79" y="9.39" width="0.24" height="1.56" style="fill:#780d10"/><polygon points="36.59 10.95 36.59 9.39 36.35 9.39 36.35 10.48 35.63 9.39 35.41 9.39 35.41 10.95 35.65 10.95 35.65 9.85 36.37 10.95 36.59 10.95" style="fill:#780d10"/><path d="M698.45,388.41a.38.38,0,0,0-.13-.32A.46.46,0,0,0,698,388l-.18,0a.3.3,0,0,1-.17-.08.17.17,0,0,1-.06-.14c0-.14.1-.24.28-.24a.41.41,0,0,1,.34.12l.16-.15a.65.65,0,0,0-.49-.18.46.46,0,0,0-.52.46.42.42,0,0,0,.11.3.59.59,0,0,0,.3.12l.18,0a.27.27,0,0,1,.17.06.2.2,0,0,1,.07.16c0,.16-.12.24-.33.24a.47.47,0,0,1-.39-.15l-.16.16a.7.7,0,0,0,.55.21c.33,0,.56-.17.56-.46" transform="translate(-660.5 -377.9)" style="fill:#780d10"/><polygon points="39.22 9.6 39.22 9.39 38.13 9.39 38.13 9.6 38.56 9.6 38.56 10.95 38.79 10.95 38.79 9.6 39.22 9.6" style="fill:#780d10"/><rect x="39.49" y="9.39" width="0.24" height="1.56" style="fill:#780d10"/><polygon points="41.09 9.6 41.09 9.39 40 9.39 40 9.6 40.43 9.6 40.43 10.95 40.66 10.95 40.66 9.6 41.09 9.6" style="fill:#780d10"/><path d="M702.94,388.33v-1h-.24v1a.33.33,0,1,1-.65,0v-1h-.23v1a.53.53,0,0,0,.56.54.54.54,0,0,0,.56-.54" transform="translate(-660.5 -377.9)" style="fill:#780d10"/><polygon points="43.75 9.6 43.75 9.39 42.66 9.39 42.66 9.6 43.09 9.6 43.09 10.95 43.32 10.95 43.32 9.6 43.75 9.6" style="fill:#780d10"/><polygon points="45 10.95 45 10.74 44.24 10.74 44.24 10.27 44.88 10.27 44.88 10.06 44.24 10.06 44.24 9.6 45 9.6 45 9.39 44 9.39 44 10.95 45 10.95" style="fill:#780d10"/><polygon points="23.83 6.12 23.83 3.25 16.36 3.25 16.36 6.12 18.59 6.12 18.59 12.7 21.6 12.7 21.6 6.12 23.83 6.12" style="fill:#7d8285"/><rect x="12.8" y="3.25" width="3.01" height="9.45" style="fill:#7d8285"/><polygon points="9.25 12.7 12.25 12.7 12.25 3.25 9.44 3.25 0 12.7 3.88 12.7 9.25 7.33 9.25 12.7" style="fill:#7d8386"/><path d="M661.57,379.49a.6.6,0,0,1-.43.16h-.6v-1.73h.6a.56.56,0,0,1,.43.16.9.9,0,0,1,.17.68A1,1,0,0,1,661.57,379.49Zm-.13-1.28a.45.45,0,0,0-.34-.13h-.37v1.4h.37a.42.42,0,0,0,.34-.13.91.91,0,0,0,.12-.59A.79.79,0,0,0,661.44,378.21Z" transform="translate(-660.5 -377.9)" style="fill:#1d1d1b"/><path d="M662.1,379.65v-1.73h1.08v.16h-.89v.61h.76v.17h-.76v.62h.89v.17Z" transform="translate(-660.5 -377.9)" style="fill:#1d1d1b"/><path d="M664,379.65h-.15l-.56-1.73h.19l.45,1.4.45-1.4h.19Z" transform="translate(-660.5 -377.9)" style="fill:#1d1d1b"/><path d="M664.74,379.65v-1.73h1.07v.16h-.89v.61h.76v.17h-.76v.62h.89v.17Z" transform="translate(-660.5 -377.9)" style="fill:#1d1d1b"/><path d="M666.12,379.65v-1.73h.19v1.56h.88v.17Z" transform="translate(-660.5 -377.9)" style="fill:#1d1d1b"/><path d="M668.33,379.48a.59.59,0,0,1-.44.18.6.6,0,0,1-.44-.18c-.16-.16-.16-.33-.16-.7s0-.53.16-.7a.65.65,0,0,1,.44-.18.63.63,0,0,1,.44.18c.16.17.16.34.16.7S668.49,379.32,668.33,379.48Zm-.14-1.29a.44.44,0,0,0-.6,0c-.11.11-.12.23-.12.59s0,.48.12.59a.41.41,0,0,0,.6,0c.11-.11.12-.23.12-.59S668.3,378.3,668.19,378.19Z" transform="translate(-660.5 -377.9)" style="fill:#1d1d1b"/><path d="M669.5,378.93H669v.72h-.18v-1.73h.64a.51.51,0,1,1,0,1Zm0-.85H669v.69h.44a.35.35,0,1,0,0-.69Z" transform="translate(-660.5 -377.9)" style="fill:#1d1d1b"/><path d="M670.31,379.65v-1.73h1.07v.16h-.88v.61h.75v.17h-.75v.62h.88v.17Z" transform="translate(-660.5 -377.9)" style="fill:#1d1d1b"/><path d="M672.72,379.49a.6.6,0,0,1-.43.16h-.6v-1.73h.6a.56.56,0,0,1,.43.16.9.9,0,0,1,.17.68A1,1,0,0,1,672.72,379.49Zm-.13-1.28a.45.45,0,0,0-.34-.13h-.37v1.4h.37a.42.42,0,0,0,.34-.13.91.91,0,0,0,.12-.59A.79.79,0,0,0,672.59,378.21Z" transform="translate(-660.5 -377.9)" style="fill:#1d1d1b"/><path d="M674.46,379.65h-.67v-1.73h.65a.46.46,0,0,1,.51.46.42.42,0,0,0,0,.79A.46.46,0,0,1,674.46,379.65Zm0-1.57H674v.6h.45c.19,0,.34-.09.34-.3A.3.3,0,0,0,674.42,378.08Zm0,.77H674v.63h.47a.32.32,0,1,0,0-.63Z" transform="translate(-660.5 -377.9)" style="fill:#1d1d1b"/><path d="M675.8,378.93v.72h-.18v-.72l-.52-1h.2l.41.83.4-.83h.2Z" transform="translate(-660.5 -377.9)" style="fill:#1d1d1b"/></svg>
